<svg xmlns="http://www.w3.org/2000/svg" width="18.5" height="15.5" viewBox="0 0 37.187 31">
  <metadata><?xpacket begin="﻿" id="W5M0MpCehiHzreSzNTczkc9d"?>
<x:xmpmeta xmlns:x="adobe:ns:meta/" x:xmptk="Adobe XMP Core 5.6-c138 79.159824, 2016/09/14-01:09:01        ">
   <rdf:RDF xmlns:rdf="http://www.w3.org/1999/02/22-rdf-syntax-ns#">
      <rdf:Description rdf:about=""/>
   </rdf:RDF>
</x:xmpmeta>
                                                                                                    
                                                                                                    
                                                                                                    
                                                                                                    
                                                                                                    
                                                                                                    
                                                                                                    
                                                                                                    
                                                                                                    
                                                                                                    
                                                                                                    
                                                                                                    
                                                                                                    
                                                                                                    
                                                                                                    
                                                                                                    
                                                                                                    
                                                                                                    
                                                                                                    
                                                                                                    
                           
<?xpacket end="w"?></metadata>
<defs>
    <style>
      .cls-1 {
        fill: #f68802;
        fill-rule: evenodd;
      }
    </style>
  </defs>
  <path id="二级icon" class="cls-1" d="M114.618,599.069L124.386,597a34.082,34.082,0,0,1,1.689,5.039,72.517,72.517,0,0,1,1.487,8.943q0.27,2.6.744,11.011,4.224-4.605,5.038-5.7,4.461-5.976,5.137-7.008a14.654,14.654,0,0,0,1.555-3.1,5.441,5.441,0,0,0,.372-1.9q0-.867-1.573-2a3.175,3.175,0,0,1-1.571-2.538,2.584,2.584,0,0,1,.861-1.9,2.845,2.845,0,0,1,2.046-.836,3.335,3.335,0,0,1,2.5,1.153,4,4,0,0,1,1.083,2.852,10.026,10.026,0,0,1-.54,3.27,29.678,29.678,0,0,1-3.279,6.192,99.563,99.563,0,0,1-7.74,9.793q-0.678.77-7.506,7.74h-1.251q-0.811-21.123-3.381-26.362a2.9,2.9,0,0,0-2.806-1.7,13.63,13.63,0,0,0-2.4.3l-0.235-1.168h0Zm30.332,27.264h6.836V627.8h-9.222v-1.082a14.649,14.649,0,0,1,4.127-4.584q3.289-2.292,3.032-3.693-0.066-2.163-2.451-2.228-2.128,0-2.709,2.483l-1.806-.573q0.967-3.5,4.837-3.5,3.933,0.129,4.192,3.629,0.322,2.292-3.16,4.521A12.724,12.724,0,0,0,144.95,626.333Z" transform="translate(-114.625 -597)"/>
</svg>
