<svg xmlns="http://www.w3.org/2000/svg" width="18.5" height="15.5" viewBox="0 0 37.187 31">
  <metadata><?xpacket begin="﻿" id="W5M0MpCehiHzreSzNTczkc9d"?>
<x:xmpmeta xmlns:x="adobe:ns:meta/" x:xmptk="Adobe XMP Core 5.6-c138 79.159824, 2016/09/14-01:09:01        ">
   <rdf:RDF xmlns:rdf="http://www.w3.org/1999/02/22-rdf-syntax-ns#">
      <rdf:Description rdf:about=""/>
   </rdf:RDF>
</x:xmpmeta>
                                                                                                    
                                                                                                    
                                                                                                    
                                                                                                    
                                                                                                    
                                                                                                    
                                                                                                    
                                                                                                    
                                                                                                    
                                                                                                    
                                                                                                    
                                                                                                    
                                                                                                    
                                                                                                    
                                                                                                    
                                                                                                    
                                                                                                    
                                                                                                    
                                                                                                    
                                                                                                    
                           
<?xpacket end="w"?></metadata>
<defs>
    <style>
      .cls-1 {
        fill: #f08502;
        fill-rule: evenodd;
      }
    </style>
  </defs>
  <path id="三级icon" class="cls-1" d="M595.164,593.132L605.141,591a35.45,35.45,0,0,1,1.726,5.194,75.385,75.385,0,0,1,1.518,9.22q0.276,2.682.76,11.352,4.316-4.747,5.146-5.881,4.557-6.16,5.248-7.225a15.189,15.189,0,0,0,1.588-3.2,5.668,5.668,0,0,0,.38-1.961q0-.894-1.607-2.064a3.275,3.275,0,0,1-1.605-2.615,2.674,2.674,0,0,1,.879-1.959,2.9,2.9,0,0,1,2.091-.862,3.393,3.393,0,0,1,2.554,1.189,4.143,4.143,0,0,1,1.106,2.939,10.441,10.441,0,0,1-.551,3.372,30.76,30.76,0,0,1-3.35,6.383,102.45,102.45,0,0,1-7.906,10.1q-0.693.793-7.666,7.979h-1.278q-0.83-21.775-3.453-27.177a2.96,2.96,0,0,0-2.866-1.754,13.836,13.836,0,0,0-2.451.31l-0.24-1.205h0ZM625.2,620.614a6.3,6.3,0,0,0,3.078.873c2.417,0,3.164-1.535,3.144-2.685-0.024-1.94-1.774-2.769-3.593-2.769h-1.047v-1.406h1.047c1.368,0,3.1-.7,3.1-2.343,0-1.107-.707-2.087-2.439-2.087a5.1,5.1,0,0,0-2.779.916l-0.491-1.363a6.619,6.619,0,0,1,3.633-1.064c2.737,0,3.979,1.618,3.979,3.3a3.442,3.442,0,0,1-2.565,3.259v0.042a3.612,3.612,0,0,1,3.1,3.558c0,2.214-1.732,4.154-5.067,4.154a7.085,7.085,0,0,1-3.613-.937l0.513-1.449h0Z" transform="translate(-595.156 -591)"/>
</svg>
